<svg xmlns="http://www.w3.org/2000/svg" viewBox="0 0 650.6 154.39"><defs><style>.cls-1{fill:#005470;}.cls-2{fill:#fff;}</style></defs><g id="Layer_2" data-name="Layer 2"><g id="Layer_1-2" data-name="Layer 1"><path class="cls-1" d="M240.66,15.31h18.43v9.48c.32-2.29,4.9-10.52,17.4-10.52V34.89c-13.75,0-16.88,5.73-16.88,15.73V68.54h-19Z"/><path class="cls-1" d="M281.69,42A27.37,27.37,0,0,1,309.4,14.27c15.1,0,26.66,12.29,26.66,27.71a49.66,49.66,0,0,1-.41,6.14H300.34c1.56,5,6.25,6.88,11.35,6.88a27.25,27.25,0,0,0,12.6-3.23l6.36,12.81a35.87,35.87,0,0,1-19.06,5C295.44,69.58,281.69,59.48,281.69,42Zm37.08-4.59a9.19,9.19,0,0,0-9.37-8.22c-4.69,0-8.44,3.33-9.58,8.22Z"/><path class="cls-1" d="M343.35,15.31h17.92v6.15a20,20,0,0,1,16-7.19c13.43,0,18.64,7.92,18.64,23.54V68.54H377V40.21c0-6.05-2.29-8.23-5.93-8.23-5.84,0-8.75,4.89-8.75,11.45V68.54h-19Z"/><path class="cls-1" d="M401.26,63.22l6-13.33c4.16,2.81,8,4.48,16.14,4.48.21,0,5.21-.31,5.21-2.39,0-1.67-3.12-2-6.25-2.71-11.56-2.81-20.1-7.5-20.1-17.29,0-11.67,10.62-17.71,21.87-17.71,10.31,0,16.46,2.29,21.56,5L440.11,32a43.93,43.93,0,0,0-15.31-3.13c-1.88,0-3.34.63-3.34,1.67,0,2,4.48,2.71,9.79,4.16,7.5,2.19,16.57,5.84,16.57,16.57,0,14.27-14.48,18.33-24.48,18.33C411.15,69.58,404.38,65.93,401.26,63.22Z"/><path class="cls-1" d="M454,0h19V20.1c4.69-4.68,10.11-5.83,15-5.83,13.44,0,18.65,7.92,18.65,23.54V68.54h-19V40.21c0-6.05-2.29-8.23-5.94-8.23-5.83,0-8.75,4.89-8.75,11.45V68.54H454Z"/><path class="cls-1" d="M513.32,42c0-15.42,8-27.71,22.81-27.71,4.27,0,11.36,1.46,14.48,7V15.31h17.92V68.54H550.61V62.6c-2.91,5.42-10.21,7-14.48,7C521.34,69.58,513.32,57.29,513.32,42Zm36.35,0c0-6.36-3.54-11-8.54-11s-8.54,4.68-8.54,11,3.54,10.93,8.54,10.93S549.67,48.43,549.67,42Z"/><path class="cls-1" d="M573.31,15.31h18.44l5.41,26.35c.53,2.61.94,5.32.94,5.32s.31-2.71.73-5.32l3.75-26.35h18.75l3.75,26.35c.42,2.61.73,5.32.73,5.32s.42-2.71.94-5.32l5.41-26.35H650.6l-16,53.23H617.27l-4.59-26.88c-.52-2.91-.72-4.58-.72-4.58s-.21,1.67-.73,4.58l-4.59,26.88H589.35Z"/><path class="cls-1" d="M240.66,85.85h18.43v9.48c.32-2.29,4.9-10.52,17.4-10.52v20.62c-13.75,0-16.88,5.73-16.88,15.73v17.92h-19Z"/><path class="cls-1" d="M281.69,112.52c0-15.42,8-27.71,22.81-27.71,4.27,0,11.36,1.46,14.48,7V85.85H336.9v53.23H319v-5.94c-2.92,5.41-10.21,7-14.48,7C289.71,140.12,281.69,127.83,281.69,112.52Zm36.35,0c0-6.36-3.54-11-8.54-11s-8.54,4.69-8.54,11,3.54,10.93,8.54,10.93S318,119,318,112.52Z"/><path class="cls-1" d="M346.89,148.76l6.77-11.87c4.17,2.71,10.21,3.44,14.48,3.44,6.87,0,10.42-3.13,11.66-6.57a8.28,8.28,0,0,0,.63-3.12c-2.92,3.85-8.65,5.31-12.92,5.31-14.79,0-23.33-11.46-23.33-25.52s8.54-25.62,23.33-25.62c4.27,0,11.05,1.56,14,7V85.85h17.92V124.6c0,15.2-6.77,29.79-29.17,29.79C359.81,154.39,351.68,152,346.89,148.76Zm33.64-38.33c0-5.41-3.54-9.27-8.54-9.27s-8.54,3.86-8.54,9.27S367,119.6,372,119.6,380.53,115.85,380.53,110.43Z"/><path class="cls-1" d="M409.37,120.32a9.08,9.08,0,0,1,2.93-13,80,80,0,0,0,16.76-12.79c13.14-13.14,26.28,2,30.57,7.89a9,9,0,0,1,1.72,4.62c.56,7.59.46,30-20.28,32.52-17.76,2.13-24.42-3.3-26.79-6.63a8.46,8.46,0,0,1-1.39-3.45A25.14,25.14,0,0,0,409.37,120.32Z"/><circle class="cls-2" cx="440.12" cy="114.68" r="4.15"/><path class="cls-1" d="M150.33,82.65c-.4-10-20.3-20.26-32.84-22.12C100.86,58.05,85.6,66.66,81.92,80c-.12.45-.23.91-.33,1.37s-.17.91-.24,1.37c-.63,4.24,0,8.44,3.05,13.41h0s4.33,9.69,25.07,19.44,37.13,12.44,37.13,12.44l-22.4-13.48s-3.53-1.55-8-3.8c-.17-.13-14.53-10.35-14.58-16.23a24.65,24.65,0,0,1,3.17-11.3,18.17,18.17,0,0,1,11.4-5.51,33.21,33.21,0,0,1,13.59,2.83c5.08,2.14,6.84,4.67,7.42,6.42a9.39,9.39,0,0,1,.23,2.16h11.09c0-.44.16-.35.44,0h2.33Z"/><path class="cls-1" d="M206.26,11.38a29.86,29.86,0,1,0,29.85,29.86A29.85,29.85,0,0,0,206.26,11.38Zm-.43,33.68c-4.42,0-4.41-6.86,0-6.86S210.25,45.06,205.83,45.06Z"/><circle class="cls-2" cx="206.26" cy="41.63" r="12.39"/><rect class="cls-2" x="205.83" y="38.83" width="33.49" height="8.41"/><path class="cls-1" d="M206.28,82.28a29.85,29.85,0,1,0,29.85,29.85A29.84,29.84,0,0,0,206.28,82.28ZM205.85,116c-4.42,0-4.41-6.86,0-6.86S210.27,116,205.85,116Z"/><circle class="cls-2" cx="206.28" cy="112.52" r="12.39"/><rect class="cls-2" x="205.85" y="109.72" width="33.47" height="8.41"/><path class="cls-1" d="M169.66,49.12l0-.34C165.47,22.92,133.38,9.1,105.22,9.1A72.12,72.12,0,0,0,33.48,73.85c-.13,1.22-.22,2.45-.28,3.68s-.1,2.45-.1,3.69c0,1.4,0,2.78.13,4.15C33.08,99.52,29.8,136.06,0,139.43l148.52-.55s-14.38-2.59-33-7.87c-2.67-.75-5.43-1.56-8.25-2.43-36-10.93-40.57-35.7-40.91-38a47.19,47.19,0,0,1-.25-6.25c.71-26,22.77-36,45.94-34.9,22.48,1,49.78,13.19,46,39.31C164.85,76.37,172.09,65.48,169.66,49.12Z"/></g></g></svg>